<?xml version="1.0" encoding="UTF-8"?>
<svg id="Layer_1" data-name="Layer 1" xmlns="http://www.w3.org/2000/svg" version="1.1" viewBox="0 0 337 105">
  <defs>
    <style>
      .cls-1 {
        fill: #f9a456;
      }

      .cls-1, .cls-2 {
        stroke-width: 0px;
      }

      .cls-2 {
        fill: #fff;
      }
    </style>
  </defs>
  <g>
    <path class="cls-2" d="M98.06,49.5c3.98,0,6.55-2.1,6.55-5.35,0-3.44-2.33-5.34-6.57-5.34h-7.36v18.71h2.39v-8.02h2.13l6.49,8.02h2.98l-6.62-8.02h.02ZM93.06,41.07h4.95c2.74,0,4.13,1.04,4.13,3.08s-1.43,3.16-4.13,3.16h-4.95v-6.24Z"/>
    <polygon class="cls-2" points="111.39 49.22 121.8 49.22 121.8 46.98 111.39 46.98 111.39 41.07 122.13 41.07 122.13 38.81 109.01 38.81 109.01 57.52 122.25 57.52 122.25 55.26 111.39 55.26 111.39 49.22"/>
    <path class="cls-2" d="M136.09,38.81h-2.8l-7.61,18.52-.08.19h2.49l2.08-5.14h8.95l2.06,5.05.03.08h2.56l-7.65-18.62-.03-.08ZM138.21,50.11h-7.11l3.55-8.72,3.55,8.72Z"/>
    <path class="cls-2" d="M153.79,38.81h-7.07v18.71h7.07c6.06,0,9.97-3.67,9.97-9.35s-3.91-9.35-9.97-9.35ZM153.79,55.25h-4.69v-14.17h4.69c4.68,0,7.48,2.65,7.48,7.08s-2.8,7.08-7.48,7.08Z"/>
    <polygon class="cls-2" points="172.73 47.45 167.01 38.87 166.97 38.81 164.11 38.81 171.53 49.67 171.53 57.52 173.91 57.52 173.91 49.7 181.28 38.81 178.49 38.81 172.73 47.45"/>
    <path class="cls-2" d="M200.32,40.86c2.33,0,4.44,1.08,5.64,2.9l.07.11,1.98-1.33-.07-.11c-1.46-2.4-4.39-3.88-7.63-3.88-5.59,0-9.66,4.04-9.66,9.62s4.06,9.62,9.66,9.62c3.17,0,6.01-1.42,7.58-3.79l.07-.11-1.93-1.42-.08.12c-1.23,1.84-3.29,2.89-5.64,2.89-4.15,0-7.16-3.07-7.16-7.31s3.01-7.31,7.16-7.31Z"/>
    <path class="cls-2" d="M220.63,38.81h-2.8l-7.61,18.52-.08.19h2.49l2.08-5.14h8.95l2.06,5.05.03.08h2.56l-7.65-18.62-.03-.08ZM222.75,50.11h-7.11l3.55-8.72,3.55,8.72Z"/>
    <path class="cls-2" d="M238.73,38.81h-7.1v18.71h2.39v-7.41h4.71c4.17,0,6.65-2.11,6.65-5.64s-2.49-5.65-6.65-5.65ZM234.02,41.08h4.65c2.82,0,4.25,1.14,4.25,3.38s-1.43,3.38-4.25,3.38h-4.65v-6.76Z"/>
    <rect class="cls-2" x="250.07" y="38.81" width="2.39" height="18.71"/>
    <polygon class="cls-2" points="271.18 38.81 256 38.81 256 41.08 262.4 41.08 262.4 57.52 264.78 57.52 264.78 41.08 271.18 41.08 271.18 38.81"/>
    <path class="cls-2" d="M280.9,38.81h-2.8l-7.61,18.52-.08.19h2.49l2.08-5.14h8.95l2.06,5.05.03.08h2.56l-7.65-18.62-.03-.08ZM283.02,50.11h-7.11l3.55-8.72,3.55,8.72Z"/>
    <polygon class="cls-2" points="294.81 55.25 294.81 38.81 292.42 38.81 292.42 57.52 305.48 57.52 305.48 55.25 294.81 55.25"/>
    <g>
      <circle class="cls-1" cx="30.54" cy="48.17" r=".78"/>
      <circle class="cls-1" cx="35.66" cy="48.17" r="1.01"/>
      <circle class="cls-1" cx="40.78" cy="48.17" r="1.24"/>
      <circle class="cls-1" cx="45.91" cy="48.17" r="1.46"/>
      <circle class="cls-1" cx="50.97" cy="48.17" r="1.69"/>
      <path class="cls-1" d="M31.33,48.17c0-.43-.35-.78-.78-.78s-.78.35-.78.78.35.78.78.78.78-.35.78-.78Z"/>
      <circle class="cls-1" cx="35.66" cy="48.17" r="1.01"/>
      <circle class="cls-1" cx="40.78" cy="48.17" r="1.24"/>
      <circle class="cls-1" cx="45.91" cy="48.17" r="1.46"/>
      <circle class="cls-1" cx="50.97" cy="48.17" r="1.69"/>
      <circle class="cls-1" cx="50.97" cy="41.98" r="1.86"/>
      <circle class="cls-1" cx="45.75" cy="42.43" r="1.61"/>
      <circle class="cls-1" cx="40.52" cy="42.87" r="1.36"/>
      <circle class="cls-1" cx="35.22" cy="43.32" r=".96"/>
      <circle class="cls-1" cx="30.04" cy="43.76" r=".86"/>
      <circle class="cls-1" cx="50.97" cy="29.54" r="2.14"/>
      <circle class="cls-1" cx="44.71" cy="30.89" r="1.9"/>
      <circle class="cls-1" cx="38.67" cy="32.23" r="1.65"/>
      <circle class="cls-1" cx="32.63" cy="33.58" r="1.4"/>
      <circle class="cls-1" cx="26.59" cy="34.93" r="1.15"/>
      <circle class="cls-1" cx="28.51" cy="39.41" r="1.05"/>
      <circle class="cls-1" cx="34.15" cy="38.48" r="1.21"/>
      <circle class="cls-1" cx="39.62" cy="37.68" r="1.33"/>
      <circle class="cls-1" cx="45.24" cy="36.7" r="1.64"/>
      <circle class="cls-1" cx="50.97" cy="35.7" r="1.95"/>
      <circle class="cls-1" cx="23.31" cy="30.32" r="1.31"/>
      <circle class="cls-1" cx="30.24" cy="28.46" r="1.59"/>
      <path class="cls-1" d="M39.04,26.6c0-1.03-.84-1.87-1.87-1.87-1.03,0-1.87.84-1.87,1.87s.84,1.87,1.87,1.87,1.87-.84,1.87-1.87Z"/>
      <circle class="cls-1" cx="44.1" cy="24.75" r="2.15"/>
      <path class="cls-1" d="M53.41,22.89c0-1.35-1.09-2.44-2.44-2.44-1.35,0-2.44,1.09-2.44,2.44s1.09,2.44,2.44,2.44c1.35,0,2.44-1.09,2.44-2.44Z"/>
      <circle class="cls-1" cx="71.4" cy="48.17" r=".78"/>
      <circle class="cls-1" cx="66.28" cy="48.17" r="1.01"/>
      <circle class="cls-1" cx="61.16" cy="48.17" r="1.24"/>
      <circle class="cls-1" cx="56.04" cy="48.17" r="1.46"/>
      <circle class="cls-1" cx="50.97" cy="48.17" r="1.69"/>
      <circle class="cls-1" cx="71.4" cy="48.17" r=".78"/>
      <circle class="cls-1" cx="66.28" cy="48.17" r="1.01"/>
      <circle class="cls-1" cx="61.16" cy="48.17" r="1.24"/>
      <circle class="cls-1" cx="56.04" cy="48.17" r="1.46"/>
      <circle class="cls-1" cx="56.19" cy="42.43" r="1.61"/>
      <circle class="cls-1" cx="61.43" cy="42.87" r="1.36"/>
      <circle class="cls-1" cx="66.72" cy="43.32" r=".96"/>
      <circle class="cls-1" cx="71.9" cy="43.76" r=".86"/>
      <circle class="cls-1" cx="57.24" cy="30.89" r="1.9"/>
      <circle class="cls-1" cx="63.27" cy="32.23" r="1.65"/>
      <circle class="cls-1" cx="69.31" cy="33.58" r="1.4"/>
      <circle class="cls-1" cx="75.35" cy="34.93" r="1.15"/>
      <circle class="cls-1" cx="73.43" cy="39.41" r="1.05"/>
      <circle class="cls-1" cx="67.8" cy="38.48" r="1.21"/>
      <circle class="cls-1" cx="62.32" cy="37.68" r="1.33"/>
      <circle class="cls-1" cx="56.7" cy="36.7" r="1.64"/>
      <circle class="cls-1" cx="78.63" cy="30.32" r="1.31"/>
      <circle class="cls-1" cx="71.7" cy="28.46" r="1.59"/>
      <circle class="cls-1" cx="64.77" cy="26.6" r="1.87"/>
      <circle class="cls-1" cx="57.84" cy="24.75" r="2.15"/>
    </g>
    <circle class="cls-1" cx="30.55" cy="48.17" r=".78"/>
    <circle class="cls-1" cx="35.67" cy="48.17" r="1.01"/>
    <circle class="cls-1" cx="40.79" cy="48.17" r="1.24"/>
    <circle class="cls-1" cx="45.91" cy="48.17" r="1.46"/>
    <circle class="cls-1" cx="50.98" cy="48.17" r="1.69"/>
    <circle class="cls-1" cx="50.98" cy="48.17" r="1.69"/>
    <circle class="cls-1" cx="50.98" cy="54.35" r="1.86"/>
    <circle class="cls-1" cx="45.76" cy="53.91" r="1.61"/>
    <circle class="cls-1" cx="40.52" cy="53.46" r="1.36"/>
    <circle class="cls-1" cx="35.22" cy="53.01" r=".96"/>
    <circle class="cls-1" cx="30.05" cy="52.57" r=".86"/>
    <circle class="cls-1" cx="50.98" cy="66.79" r="2.14"/>
    <circle class="cls-1" cx="44.71" cy="65.45" r="1.9"/>
    <circle class="cls-1" cx="38.67" cy="64.1" r="1.65"/>
    <circle class="cls-1" cx="32.64" cy="62.75" r="1.4"/>
    <circle class="cls-1" cx="26.6" cy="61.41" r="1.15"/>
    <circle class="cls-1" cx="28.52" cy="56.92" r="1.05"/>
    <circle class="cls-1" cx="34.15" cy="57.85" r="1.21"/>
    <circle class="cls-1" cx="39.63" cy="58.65" r="1.33"/>
    <circle class="cls-1" cx="45.25" cy="59.63" r="1.64"/>
    <circle class="cls-1" cx="50.98" cy="60.64" r="1.95"/>
    <circle class="cls-1" cx="23.32" cy="66.01" r="1.31"/>
    <circle class="cls-1" cx="30.25" cy="67.87" r="1.59"/>
    <path class="cls-1" d="M39.05,69.73c0,1.03-.84,1.87-1.87,1.87-1.03,0-1.87-.84-1.87-1.87,0-1.03.84-1.87,1.87-1.87s1.87.84,1.87,1.87Z"/>
    <path class="cls-1" d="M46.26,71.59c0,1.19-.96,2.15-2.15,2.15-1.19,0-2.15-.96-2.15-2.15s.96-2.15,2.15-2.15c1.19,0,2.15.96,2.15,2.15Z"/>
    <circle class="cls-1" cx="50.98" cy="73.45" r="2.44"/>
    <circle class="cls-1" cx="71.41" cy="48.17" r=".78"/>
    <circle class="cls-1" cx="66.28" cy="48.17" r="1.01"/>
    <circle class="cls-1" cx="61.16" cy="48.17" r="1.24"/>
    <circle class="cls-1" cx="56.04" cy="48.17" r="1.46"/>
    <circle class="cls-1" cx="56.19" cy="53.91" r="1.61"/>
    <circle class="cls-1" cx="61.43" cy="53.46" r="1.36"/>
    <circle class="cls-1" cx="66.73" cy="53.01" r=".96"/>
    <circle class="cls-1" cx="71.91" cy="52.57" r=".86"/>
    <circle class="cls-1" cx="57.24" cy="65.45" r="1.9"/>
    <circle class="cls-1" cx="63.28" cy="64.1" r="1.65"/>
    <circle class="cls-1" cx="69.32" cy="62.75" r="1.4"/>
    <circle class="cls-1" cx="75.36" cy="61.41" r="1.15"/>
    <circle class="cls-1" cx="73.44" cy="56.92" r="1.05"/>
    <circle class="cls-1" cx="67.8" cy="57.85" r="1.21"/>
    <circle class="cls-1" cx="62.33" cy="58.65" r="1.33"/>
    <circle class="cls-1" cx="56.71" cy="59.63" r="1.64"/>
    <circle class="cls-1" cx="78.64" cy="66.01" r="1.31"/>
    <circle class="cls-1" cx="71.71" cy="67.87" r="1.59"/>
    <circle class="cls-1" cx="64.78" cy="69.73" r="1.87"/>
    <circle class="cls-1" cx="57.85" cy="71.59" r="2.15"/>
  </g>
  <g>
    <path class="cls-2" d="M95.2,76.59c.81,0,1.55.17,2.23.51.67.34,1.19.8,1.54,1.39l-1.23.82c-.28-.41-.64-.73-1.08-.96-.44-.23-.93-.35-1.46-.35-.94,0-1.71.31-2.31.92-.61.62-.91,1.41-.91,2.39s.3,1.77.91,2.39c.61.62,1.38.92,2.31.92.53,0,1.02-.11,1.45-.34.44-.23.8-.55,1.08-.96l1.2.88c-.39.57-.91,1.02-1.57,1.35s-1.38.49-2.16.49c-.92,0-1.74-.2-2.47-.61-.73-.41-1.29-.97-1.69-1.69-.4-.72-.6-1.52-.6-2.42s.2-1.7.6-2.42c.4-.72.97-1.28,1.69-1.69.73-.41,1.55-.61,2.47-.61Z"/>
    <path class="cls-2" d="M103.78,79.46c.4,0,.75.06,1.05.18l-.33,1.35c-.29-.15-.63-.23-1.03-.23-.44,0-.8.15-1.07.45s-.41.71-.41,1.22v3.43h-1.36v-6.23h1.35v.7c.4-.58,1-.86,1.81-.86Z"/>
    <path class="cls-2" d="M108.51,79.46c.87,0,1.58.3,2.12.91.54.6.82,1.39.82,2.36,0,.13,0,.3-.03.51h-4.6c.09.53.3.93.64,1.19.34.26.74.39,1.22.39.65,0,1.25-.22,1.8-.66l.68.97c-.68.58-1.54.88-2.56.88-.94,0-1.71-.3-2.3-.9-.59-.6-.89-1.39-.89-2.37s.29-1.76.86-2.37,1.32-.91,2.24-.91ZM108.49,80.67c-.47,0-.84.14-1.12.41-.28.28-.46.65-.53,1.12h3.23c-.07-.49-.25-.86-.52-1.13-.27-.27-.63-.4-1.06-.4Z"/>
    <path class="cls-2" d="M119.03,79.63v6.23h-1.36v-.75c-.47.61-1.12.91-1.96.91-.88,0-1.62-.31-2.22-.93-.6-.62-.9-1.4-.9-2.35s.3-1.73.9-2.35c.6-.62,1.34-.93,2.22-.93.83,0,1.48.31,1.96.92v-.75h1.36ZM115.88,80.75c-.57,0-1.02.19-1.37.58-.34.38-.51.86-.51,1.42s.17,1.04.51,1.42.8.58,1.37.58,1.01-.19,1.35-.57c.35-.38.52-.85.52-1.43s-.17-1.05-.52-1.43c-.35-.38-.8-.57-1.35-.57Z"/>
    <path class="cls-2" d="M125.32,79.63v1.23h-2.39v2.71c0,.4.09.69.27.88.18.19.42.28.71.28.39,0,.81-.14,1.25-.42l.54,1.08c-.61.41-1.25.62-1.91.62-.72,0-1.27-.2-1.66-.6-.39-.4-.58-1-.58-1.82v-2.74h-1.24v-1.23h1.24v-1.89h1.36v1.89h2.39Z"/>
    <path class="cls-2" d="M126.88,76.79c.18-.19.41-.28.68-.28s.5.09.68.28c.19.19.28.41.28.68s-.09.49-.28.68c-.19.18-.41.27-.68.27s-.49-.09-.68-.27c-.18-.18-.27-.41-.27-.68s.09-.5.27-.68ZM128.25,79.63v6.23h-1.37v-6.23h1.37Z"/>
    <path class="cls-2" d="M135.98,79.63l-2.49,6.23h-1.61l-2.5-6.23h1.48l1.84,4.82,1.84-4.82h1.44Z"/>
    <path class="cls-2" d="M139.69,79.46c.87,0,1.58.3,2.12.91.54.6.82,1.39.82,2.36,0,.13,0,.3-.03.51h-4.6c.09.53.3.93.64,1.19.34.26.74.39,1.22.39.65,0,1.25-.22,1.8-.66l.68.97c-.68.58-1.54.88-2.56.88-.94,0-1.71-.3-2.3-.9-.59-.6-.89-1.39-.89-2.37s.29-1.76.86-2.37,1.32-.91,2.24-.91ZM139.66,80.67c-.47,0-.84.14-1.12.41-.28.28-.46.65-.53,1.12h3.23c-.07-.49-.25-.86-.52-1.13-.27-.27-.63-.4-1.06-.4Z"/>
    <path class="cls-2" d="M154.52,77.58l-.75,1.19c-.81-.52-1.67-.78-2.55-.78-.61,0-1.1.12-1.48.37s-.57.58-.57.99c0,.36.16.62.47.81.31.18.79.32,1.42.41l.63.08c1.95.27,2.93,1.1,2.93,2.5,0,.6-.17,1.12-.51,1.56-.34.44-.78.77-1.32.98s-1.15.32-1.82.32-1.31-.11-1.98-.32c-.67-.21-1.23-.51-1.68-.9l.8-1.17c.32.29.74.53,1.27.72.53.19,1.06.28,1.58.28.61,0,1.12-.12,1.52-.37s.6-.57.6-.98c0-.35-.17-.61-.5-.8s-.85-.33-1.54-.43l-.71-.1c-.29-.04-.55-.09-.8-.17-.25-.07-.49-.18-.73-.31-.24-.13-.44-.29-.61-.47-.17-.18-.3-.4-.4-.67-.1-.27-.15-.57-.15-.89,0-.59.16-1.1.49-1.54s.76-.76,1.29-.98c.54-.21,1.14-.32,1.8-.32,1.21,0,2.31.33,3.29.98Z"/>
    <path class="cls-2" d="M157.59,79.89c.51-.29,1.08-.43,1.72-.43s1.2.14,1.72.43c.51.28.91.68,1.2,1.18.29.5.44,1.06.44,1.67s-.15,1.17-.44,1.67c-.29.5-.69.89-1.2,1.18-.51.28-1.08.43-1.72.43s-1.2-.14-1.72-.43-.91-.68-1.2-1.18c-.29-.5-.43-1.05-.43-1.67s.14-1.17.43-1.67c.29-.5.69-.89,1.2-1.18ZM160.7,81.3c-.37-.37-.84-.56-1.4-.56s-1.02.19-1.39.56c-.37.37-.56.85-.56,1.44s.19,1.06.56,1.44c.37.37.83.56,1.39.56s1.02-.19,1.4-.56c.37-.37.56-.85.56-1.44s-.19-1.06-.56-1.44Z"/>
    <path class="cls-2" d="M165.62,76.49v9.36h-1.37v-9.36h1.37Z"/>
    <path class="cls-2" d="M173.36,79.63v3.59c0,.48-.08.9-.24,1.27-.16.37-.38.66-.66.88-.27.22-.58.38-.92.49-.34.11-.69.16-1.07.16s-.73-.05-1.07-.16c-.34-.11-.64-.27-.92-.49-.28-.22-.5-.51-.66-.88-.16-.37-.24-.79-.24-1.27v-3.59h1.37v3.46c0,.57.14.98.42,1.25.28.26.65.4,1.1.4s.83-.13,1.1-.4c.28-.26.42-.68.42-1.25v-3.46h1.36Z"/>
    <path class="cls-2" d="M179.58,79.63v1.23h-2.39v2.71c0,.4.09.69.27.88.18.19.42.28.71.28.39,0,.81-.14,1.25-.42l.54,1.08c-.61.41-1.25.62-1.91.62-.72,0-1.27-.2-1.66-.6-.39-.4-.58-1-.58-1.82v-2.74h-1.24v-1.23h1.24v-1.89h1.36v1.89h2.39Z"/>
    <path class="cls-2" d="M181.15,76.79c.18-.19.41-.28.68-.28s.5.09.68.28c.19.19.28.41.28.68s-.09.49-.28.68c-.19.18-.41.27-.68.27s-.49-.09-.68-.27c-.18-.18-.27-.41-.27-.68s.09-.5.27-.68ZM182.52,79.63v6.23h-1.37v-6.23h1.37Z"/>
    <path class="cls-2" d="M185.74,79.89c.51-.29,1.08-.43,1.72-.43s1.2.14,1.72.43c.51.28.91.68,1.2,1.18.29.5.44,1.06.44,1.67s-.15,1.17-.44,1.67c-.29.5-.69.89-1.2,1.18-.51.28-1.08.43-1.72.43s-1.2-.14-1.72-.43-.91-.68-1.2-1.18c-.29-.5-.43-1.05-.43-1.67s.14-1.17.43-1.67c.29-.5.69-.89,1.2-1.18ZM188.85,81.3c-.37-.37-.84-.56-1.4-.56s-1.02.19-1.39.56c-.37.37-.56.85-.56,1.44s.19,1.06.56,1.44c.37.37.83.56,1.39.56s1.02-.19,1.4-.56c.37-.37.56-.85.56-1.44s-.19-1.06-.56-1.44Z"/>
    <path class="cls-2" d="M195.66,79.46c.74,0,1.35.23,1.82.69s.71,1.06.71,1.78v3.91h-1.36v-3.46c0-.52-.13-.92-.38-1.21-.25-.28-.61-.43-1.07-.43s-.84.15-1.15.44c-.31.29-.46.69-.46,1.21v3.45h-1.37v-6.23h1.35v.76c.42-.62,1.06-.92,1.91-.92Z"/>
    <path class="cls-2" d="M204.99,80.13l-.58,1.06c-.22-.14-.51-.26-.86-.37-.35-.11-.71-.16-1.06-.16s-.65.07-.86.2c-.21.13-.31.31-.31.54,0,.1.02.19.07.27.05.08.13.14.23.19.1.05.21.08.32.11s.25.05.41.08l.64.1c1.44.21,2.16.82,2.16,1.84,0,.61-.25,1.1-.75,1.48-.5.37-1.2.56-2.08.56-1.06,0-1.95-.27-2.67-.8l.63-1.02c.55.42,1.24.64,2.05.64.46,0,.81-.07,1.05-.2.24-.13.36-.32.36-.56,0-.36-.36-.59-1.08-.69l-.65-.08c-.69-.1-1.21-.3-1.57-.61-.36-.31-.54-.72-.54-1.22,0-.62.23-1.1.69-1.46s1.09-.54,1.88-.54c1,0,1.85.22,2.52.66Z"/>
    <path class="cls-2" d="M206.51,84.08c.23-.23.49-.34.8-.34s.57.11.79.34c.23.23.34.49.34.79s-.11.58-.34.8c-.23.23-.49.34-.79.34s-.57-.11-.8-.34c-.23-.23-.34-.5-.34-.8s.11-.57.34-.79Z"/>
    <path class="cls-2" d="M213.58,76.75h3.74c1.04,0,1.84.23,2.4.68.55.45.83,1.1.83,1.95,0,.77-.27,1.4-.82,1.87-.55.48-1.29.73-2.21.77l3,3.83h-1.82l-2.9-3.83h-.74v3.83h-1.47v-9.1ZM217.29,78.13h-2.24v2.56h2.24c.59,0,1.03-.11,1.31-.32.28-.21.43-.54.43-.99s-.14-.75-.43-.95c-.29-.2-.72-.31-1.3-.31Z"/>
    <path class="cls-2" d="M224.67,79.46c.87,0,1.58.3,2.12.91.54.6.82,1.39.82,2.36,0,.13,0,.3-.03.51h-4.6c.09.53.3.93.64,1.19.34.26.74.39,1.22.39.65,0,1.25-.22,1.8-.66l.68.97c-.68.58-1.54.88-2.56.88-.94,0-1.71-.3-2.3-.9-.59-.6-.89-1.39-.89-2.37s.29-1.76.86-2.37,1.32-.91,2.24-.91ZM224.64,80.67c-.47,0-.84.14-1.12.41-.28.28-.46.65-.53,1.12h3.23c-.07-.49-.25-.86-.52-1.13-.27-.27-.63-.4-1.06-.4Z"/>
    <path class="cls-2" d="M230.57,76.49v9.36h-1.37v-9.36h1.37Z"/>
    <path class="cls-2" d="M232.61,76.79c.18-.19.41-.28.68-.28s.5.09.68.28c.19.19.28.41.28.68s-.09.49-.28.68c-.19.18-.41.27-.68.27s-.49-.09-.68-.27c-.18-.18-.27-.41-.27-.68s.09-.5.27-.68ZM233.98,79.63v6.23h-1.37v-6.23h1.37Z"/>
    <path class="cls-2" d="M242,79.63v6.23h-1.36v-.75c-.47.61-1.12.91-1.96.91-.88,0-1.62-.31-2.22-.93-.6-.62-.9-1.4-.9-2.35s.3-1.73.9-2.35c.6-.62,1.34-.93,2.22-.93.83,0,1.48.31,1.96.92v-.75h1.36ZM238.84,80.75c-.57,0-1.02.19-1.37.58-.34.38-.51.86-.51,1.42s.17,1.04.51,1.42.8.58,1.37.58,1.01-.19,1.35-.57c.35-.38.52-.85.52-1.43s-.17-1.05-.52-1.43c-.35-.38-.8-.57-1.35-.57Z"/>
    <path class="cls-2" d="M247.35,79.46c.88,0,1.62.31,2.22.93.6.62.9,1.4.9,2.35s-.3,1.73-.9,2.35c-.6.62-1.34.93-2.22.93-.83,0-1.48-.3-1.95-.9v.74h-1.36v-9.36h1.36v3.87c.47-.6,1.12-.9,1.95-.9ZM247.18,80.75c-.55,0-1.01.19-1.35.57-.35.38-.52.85-.52,1.43s.17,1.05.52,1.43c.35.38.8.57,1.35.57s1.02-.19,1.37-.58.51-.86.51-1.42-.17-1.04-.51-1.42c-.34-.38-.8-.58-1.37-.58Z"/>
    <path class="cls-2" d="M253.42,76.49v9.36h-1.37v-9.36h1.37Z"/>
    <path class="cls-2" d="M258.11,79.46c.87,0,1.58.3,2.12.91.54.6.82,1.39.82,2.36,0,.13,0,.3-.03.51h-4.6c.09.53.3.93.64,1.19.34.26.74.39,1.22.39.65,0,1.25-.22,1.8-.66l.68.97c-.68.58-1.54.88-2.56.88-.94,0-1.71-.3-2.3-.9-.59-.6-.89-1.39-.89-2.37s.29-1.76.86-2.37,1.32-.91,2.24-.91ZM258.08,80.67c-.47,0-.84.14-1.12.41-.28.28-.46.65-.53,1.12h3.23c-.07-.49-.25-.86-.52-1.13-.27-.27-.63-.4-1.06-.4Z"/>
    <path class="cls-2" d="M266.23,76.75h3.74c1.04,0,1.84.23,2.4.68.55.45.83,1.1.83,1.95,0,.77-.27,1.4-.82,1.87-.55.48-1.29.73-2.21.77l3,3.83h-1.82l-2.9-3.83h-.74v3.83h-1.47v-9.1ZM269.94,78.13h-2.24v2.56h2.24c.59,0,1.03-.11,1.31-.32.28-.21.43-.54.43-.99s-.14-.75-.43-.95c-.29-.2-.72-.31-1.3-.31Z"/>
    <path class="cls-2" d="M277.32,79.46c.87,0,1.58.3,2.12.91.54.6.82,1.39.82,2.36,0,.13,0,.3-.03.51h-4.6c.09.53.3.93.64,1.19.34.26.74.39,1.22.39.65,0,1.25-.22,1.8-.66l.68.97c-.68.58-1.54.88-2.56.88-.94,0-1.71-.3-2.3-.9-.59-.6-.89-1.39-.89-2.37s.29-1.76.86-2.37,1.32-.91,2.24-.91ZM277.29,80.67c-.47,0-.84.14-1.12.41-.28.28-.46.65-.53,1.12h3.23c-.07-.49-.25-.86-.52-1.13-.27-.27-.63-.4-1.06-.4Z"/>
    <path class="cls-2" d="M286.68,80.13l-.58,1.06c-.22-.14-.51-.26-.86-.37-.35-.11-.71-.16-1.06-.16s-.65.07-.86.2c-.21.13-.31.31-.31.54,0,.1.02.19.07.27.05.08.13.14.23.19.1.05.21.08.32.11s.25.05.41.08l.64.1c1.44.21,2.16.82,2.16,1.84,0,.61-.25,1.1-.75,1.48-.5.37-1.2.56-2.08.56-1.06,0-1.95-.27-2.67-.8l.63-1.02c.55.42,1.24.64,2.05.64.46,0,.81-.07,1.05-.2.24-.13.36-.32.36-.56,0-.36-.36-.59-1.08-.69l-.65-.08c-.69-.1-1.21-.3-1.57-.61-.36-.31-.54-.72-.54-1.22,0-.62.23-1.1.69-1.46s1.09-.54,1.88-.54c1,0,1.85.22,2.52.66Z"/>
    <path class="cls-2" d="M294.04,79.63v3.59c0,.48-.08.9-.24,1.27-.16.37-.38.66-.66.88-.27.22-.58.38-.92.49-.34.11-.69.16-1.07.16s-.73-.05-1.07-.16c-.34-.11-.64-.27-.92-.49-.28-.22-.5-.51-.66-.88-.16-.37-.24-.79-.24-1.27v-3.59h1.37v3.46c0,.57.14.98.42,1.25.28.26.65.4,1.1.4s.83-.13,1.1-.4c.28-.26.42-.68.42-1.25v-3.46h1.36Z"/>
    <path class="cls-2" d="M297.38,76.49v9.36h-1.37v-9.36h1.37Z"/>
    <path class="cls-2" d="M303.67,79.63v1.23h-2.38v2.71c0,.4.09.69.27.88.18.19.42.28.71.28.39,0,.81-.14,1.25-.42l.54,1.08c-.61.41-1.25.62-1.91.62-.72,0-1.27-.2-1.66-.6-.39-.4-.58-1-.58-1.82v-2.74h-1.24v-1.23h1.24v-1.89h1.36v1.89h2.38Z"/>
    <path class="cls-2" d="M310.06,80.13l-.58,1.06c-.22-.14-.51-.26-.86-.37-.35-.11-.71-.16-1.06-.16s-.65.07-.86.2c-.21.13-.32.31-.32.54,0,.1.03.19.08.27.05.08.13.14.23.19s.21.08.32.11.25.05.41.08l.64.1c1.44.21,2.16.82,2.16,1.84,0,.61-.25,1.1-.75,1.48-.5.37-1.2.56-2.08.56-1.06,0-1.95-.27-2.67-.8l.63-1.02c.55.42,1.24.64,2.05.64.46,0,.81-.07,1.05-.2.24-.13.36-.32.36-.56,0-.36-.36-.59-1.08-.69l-.65-.08c-.69-.1-1.21-.3-1.57-.61-.36-.31-.54-.72-.54-1.22,0-.62.23-1.1.69-1.46.46-.36,1.09-.54,1.88-.54,1,0,1.85.22,2.52.66Z"/>
    <path class="cls-2" d="M311.57,84.08c.23-.23.49-.34.8-.34s.57.11.79.34.34.49.34.79-.11.58-.34.8-.49.34-.79.34-.57-.11-.8-.34c-.23-.23-.34-.5-.34-.8s.11-.57.34-.79Z"/>
  </g>
  <path class="cls-2" d="M313.11,55.54c0,1.23-1.02,2.23-2.27,2.23s-2.29-1-2.29-2.23,1.01-2.24,2.29-2.24,2.27,1.01,2.27,2.24ZM312.66,55.54c0-1.02-.81-1.83-1.82-1.83s-1.84.81-1.84,1.83.81,1.83,1.84,1.83,1.82-.82,1.82-1.83ZM310.97,54.44c.52,0,.83.26.83.67,0,.36-.26.6-.71.64l.72.84h-.44l-.69-.84h-.29v.84h-.37v-2.15h.95ZM310.39,54.76v.69h.57c.28,0,.46-.12.46-.34s-.18-.35-.46-.35h-.57Z"/>
</svg>